{
 "asset": {
  "version": "2.0",
  "generator": "arenasim wand_rod authoring script (AS-144)",
  "copyright": "CC0 / public domain - authored for ArenaSim"
 },
 "scene": 0,
 "scenes": [
  {
   "nodes": [
    0
   ]
  }
 ],
 "nodes": [
  {
   "mesh": 0,
   "name": "WandRod"
  }
 ],
 "materials": [
  {
   "name": "WandHaft",
   "pbrMetallicRoughness": {
    "baseColorFactor": [
     0.21,
     0.16,
     0.13,
     1.0
    ],
    "metallicFactor": 0.1,
    "roughnessFactor": 0.75
   }
  },
  {
   "name": "WandGem",
   "pbrMetallicRoughness": {
    "baseColorFactor": [
     0.72,
     0.78,
     0.95,
     1.0
    ],
    "metallicFactor": 0.0,
    "roughnessFactor": 0.25
   },
   "emissiveFactor": [
    0.22,
    0.26,
    0.38
   ]
  }
 ],
 "meshes": [
  {
   "name": "WandRod",
   "primitives": [
    {
     "attributes": {
      "POSITION": 0,
      "NORMAL": 1
     },
     "indices": 2,
     "material": 0
    },
    {
     "attributes": {
      "POSITION": 0,
      "NORMAL": 1
     },
     "indices": 3,
     "material": 1
    }
   ]
  }
 ],
 "accessors": [
  {
   "bufferView": 0,
   "componentType": 5126,
   "count": 120,
   "type": "VEC3",
   "min": [
    -0.038,
    0.0,
    -0.038
   ],
   "max": [
    0.038,
    0.44,
    0.038
   ]
  },
  {
   "bufferView": 1,
   "componentType": 5126,
   "count": 120,
   "type": "VEC3"
  },
  {
   "bufferView": 2,
   "byteOffset": 0,
   "componentType": 5123,
   "count": 72,
   "type": "SCALAR"
  },
  {
   "bufferView": 2,
   "byteOffset": 144,
   "componentType": 5123,
   "count": 48,
   "type": "SCALAR"
  }
 ],
 "bufferViews": [
  {
   "buffer": 0,
   "byteOffset": 0,
   "byteLength": 1440,
   "target": 34962
  },
  {
   "buffer": 0,
   "byteOffset": 1440,
   "byteLength": 1440,
   "target": 34962
  },
  {
   "buffer": 0,
   "byteOffset": 2880,
   "byteLength": 240,
   "target": 34963
  }
 ],
 "buffers": [
  {
   "byteLength": 3120,
   "uri": "data:application/octet-stream;base64,"
  }
 ]
}
